# xmcd
#
# Track frame offsets: 
#        150
#        14869
#        35731
#        45726
#        71006
#        82749
#        97347
#        112050
#        131167
#        148794
#        165906
#        184895
#
# Disc length: 2666 seconds
#
# Revision: 0
# Processed by: cddbd v1.5.2PL0 Copyright (c) Steve Scherf et al.
# Submitted via: ExactAudioCopyFreeDBPlugin 1.0
#
DISCID=b20a680c
DTITLE=憂歌兄弟 - 憂歌兄弟
DYEAR=2014
DGENRE=Blues
TTITLE0=思い出酒場
TTITLE1=地獄谷クロスロード
TTITLE2=Moonlight Stealer
TTITLE3=オウエン歌
TTITLE4=想う人
TTITLE5=街行き
TTITLE6=つぼ
TTITLE7=歩こう
TTITLE8=アイスクリンマン(ICE CREAM MAN)
TTITLE9=Kansas City - Hey Hey Hey Hey
TTITLE10=空高く
TTITLE11=はるか遠い景色
EXTD=
EXTT0=
EXTT1=
EXTT2=
EXTT3=
EXTT4=
EXTT5=
EXTT6=
EXTT7=
EXTT8=
EXTT9=
EXTT10=
EXTT11=
PLAYORDER=
